<svg width="139.453" height="77.247" viewBox="0 0 139.453 77.247" xmlns="http://www.w3.org/2000/svg"><g id="svgGroup" stroke-linecap="round" fill-rule="evenodd" font-size="9pt" stroke="#000" stroke-width="0.25mm" fill="#000" style="stroke:#000;stroke-width:0.25mm;fill:#000"><path d="M 11.719 70.704 L 0.488 70.704 Q 0.101 70.704 0.021 70.397 A 0.719 0.719 0 0 1 0 70.216 L 0.195 1.515 Q 0.195 1.205 0.441 1.141 A 0.576 0.576 0 0 1 0.586 1.124 L 32.617 1.124 A 0.896 0.896 0 0 1 32.795 1.14 Q 33.106 1.204 33.106 1.515 L 33.106 12.794 Q 33.106 13.104 32.86 13.168 A 0.576 0.576 0 0 1 32.715 13.185 L 12.207 13.185 L 12.207 28.712 L 32.715 28.712 Q 33.106 28.712 33.106 29.2 L 33.203 40.529 Q 33.203 40.919 32.715 40.919 L 12.207 40.919 L 12.207 70.216 Q 12.207 70.604 11.9 70.684 A 0.719 0.719 0 0 1 11.719 70.704 Z M 34.717 70.216 L 47.119 1.515 Q 47.206 1.166 47.528 1.129 A 0.695 0.695 0 0 1 47.607 1.124 L 62.109 1.124 Q 62.434 1.124 62.556 1.394 A 0.709 0.709 0 0 1 62.598 1.515 L 74.512 70.216 Q 74.552 70.618 74.261 70.689 A 0.591 0.591 0 0 1 74.121 70.704 L 63.037 70.704 A 0.712 0.712 0 0 1 62.826 70.676 Q 62.537 70.586 62.5 70.216 L 61.426 62.892 L 47.803 62.892 L 46.729 70.216 Q 46.68 70.704 46.24 70.704 L 35.107 70.704 Q 34.717 70.704 34.717 70.216 Z M 113.672 77.101 L 106.787 70.118 Q 103.125 71.681 99.268 71.681 A 18.524 18.524 0 0 1 89.502 68.995 A 20.371 20.371 0 0 1 82.3 61.696 Q 79.59 57.081 79.59 51.613 L 79.688 19.923 A 19.302 19.302 0 0 1 82.324 10.06 A 20.286 20.286 0 0 1 89.356 2.76 A 18.412 18.412 0 0 1 99.268 0.001 A 18.784 18.784 0 0 1 109.033 2.638 Q 113.477 5.324 116.138 9.816 A 19.203 19.203 0 0 1 118.775 18.88 A 23.057 23.057 0 0 1 118.799 19.923 L 118.897 51.613 A 19.515 19.515 0 0 1 118.091 57.203 A 23.674 23.674 0 0 1 116.298 61.61 A 21.684 21.684 0 0 1 115.967 62.208 L 122.168 68.507 A 1.302 1.302 0 0 1 122.28 68.607 Q 122.58 68.91 122.315 69.15 A 0.688 0.688 0 0 1 122.266 69.191 L 114.404 77.101 A 0.691 0.691 0 0 1 114.272 77.192 Q 113.988 77.338 113.672 77.101 Z M 106.787 51.613 L 106.69 19.923 Q 106.69 16.7 104.59 14.357 A 6.785 6.785 0 0 0 99.666 12.022 A 8.584 8.584 0 0 0 99.268 12.013 A 7.673 7.673 0 0 0 96.66 12.439 A 6.597 6.597 0 0 0 93.848 14.406 A 8.228 8.228 0 0 0 91.797 19.923 L 91.797 51.613 A 9.029 9.029 0 0 0 92.169 54.267 A 7.112 7.112 0 0 0 94.141 57.423 Q 96.484 59.62 99.268 59.62 A 7.345 7.345 0 0 0 101.953 59.147 A 6.603 6.603 0 0 0 104.736 57.057 A 9.921 9.921 0 0 0 106.156 54.711 A 7.917 7.917 0 0 0 106.787 51.613 Z M 54.736 20.411 L 54.297 24.122 L 49.805 52.199 L 59.424 52.199 L 55.322 24.122 L 54.736 20.411 Z M 139.063 70.704 L 127.734 70.704 Q 127.424 70.704 127.36 70.458 A 0.576 0.576 0 0 1 127.344 70.314 L 127.344 58.986 Q 127.344 58.676 127.59 58.612 A 0.576 0.576 0 0 1 127.734 58.595 L 139.063 58.595 Q 139.373 58.595 139.437 58.841 A 0.576 0.576 0 0 1 139.453 58.986 L 139.453 70.314 Q 139.453 70.624 139.207 70.688 A 0.576 0.576 0 0 1 139.063 70.704 Z" vector-effect="non-scaling-stroke"/></g></svg>