<svg width="366.553" height="71.682" viewBox="0 0 366.553 71.682" xmlns="http://www.w3.org/2000/svg"><g id="svgGroup" stroke-linecap="round" fill-rule="evenodd" font-size="9pt" stroke="#000" stroke-width="0.25mm" fill="#000" style="stroke:#000;stroke-width:0.25mm;fill:#000"><path d="M 319.287 70.704 L 307.959 70.704 Q 307.568 70.704 307.568 70.216 L 307.764 1.612 A 0.896 0.896 0 0 1 307.78 1.434 Q 307.843 1.124 308.154 1.124 L 319.385 1.124 Q 319.775 1.124 319.775 1.612 L 319.775 25.294 L 335.449 1.515 A 1.992 1.992 0 0 1 335.662 1.328 Q 335.935 1.124 336.182 1.124 L 347.656 1.124 A 0.73 0.73 0 0 1 347.756 1.13 Q 348.045 1.17 347.877 1.473 A 1.002 1.002 0 0 1 347.852 1.515 L 330.566 29.103 L 349.951 70.314 A 0.542 0.542 0 0 1 349.985 70.375 Q 350.128 70.689 349.524 70.704 A 2.519 2.519 0 0 1 349.463 70.704 L 337.256 70.704 Q 336.768 70.704 336.67 70.314 L 323.145 40.919 L 319.678 46.388 L 319.678 70.216 A 0.896 0.896 0 0 1 319.662 70.394 Q 319.598 70.704 319.287 70.704 Z M 74.805 70.704 L 42.481 70.704 Q 42.09 70.704 42.09 70.216 L 42.188 1.515 Q 42.188 1.205 42.434 1.141 A 0.576 0.576 0 0 1 42.578 1.124 L 74.707 1.124 Q 75.098 1.124 75.098 1.612 L 75.098 12.794 Q 75.098 13.104 74.852 13.168 A 0.576 0.576 0 0 1 74.707 13.185 L 54.199 13.185 L 54.199 28.81 L 74.707 28.81 Q 75.017 28.81 75.081 29.056 A 0.576 0.576 0 0 1 75.098 29.2 L 75.195 40.528 Q 75.195 40.838 74.949 40.902 A 0.576 0.576 0 0 1 74.805 40.919 L 54.199 40.919 L 54.199 58.4 L 74.805 58.4 Q 75.195 58.4 75.195 58.888 L 75.195 70.314 Q 75.195 70.624 74.949 70.688 A 0.576 0.576 0 0 1 74.805 70.704 Z M 116.797 70.704 L 84.473 70.704 Q 84.082 70.704 84.082 70.216 L 84.18 1.515 Q 84.18 1.205 84.426 1.141 A 0.576 0.576 0 0 1 84.57 1.124 L 116.699 1.124 Q 117.09 1.124 117.09 1.612 L 117.09 12.794 Q 117.09 13.104 116.844 13.168 A 0.576 0.576 0 0 1 116.699 13.185 L 96.191 13.185 L 96.191 28.81 L 116.699 28.81 Q 117.009 28.81 117.073 29.056 A 0.576 0.576 0 0 1 117.09 29.2 L 117.188 40.528 Q 117.188 40.838 116.942 40.902 A 0.576 0.576 0 0 1 116.797 40.919 L 96.191 40.919 L 96.191 58.4 L 116.797 58.4 Q 117.188 58.4 117.188 58.888 L 117.188 70.314 Q 117.188 70.624 116.942 70.688 A 0.576 0.576 0 0 1 116.797 70.704 Z M 261.133 51.319 L 261.231 20.118 A 20.993 20.993 0 0 1 262.298 13.351 A 19.119 19.119 0 0 1 263.77 10.06 A 19.825 19.825 0 0 1 270.776 2.76 Q 275.244 0.001 280.713 0.001 A 19.67 19.67 0 0 1 286.817 0.923 A 17.474 17.474 0 0 1 290.625 2.687 Q 295.02 5.372 297.632 9.938 A 19.971 19.971 0 0 1 300.234 19.421 A 23.728 23.728 0 0 1 300.244 20.118 L 300.244 24.708 Q 300.244 25.018 299.998 25.082 A 0.576 0.576 0 0 1 299.854 25.099 L 288.623 25.099 Q 288.313 25.099 288.249 24.853 A 0.576 0.576 0 0 1 288.232 24.708 L 288.232 20.118 Q 288.232 16.798 286.084 14.405 A 6.885 6.885 0 0 0 281.112 12.022 A 8.421 8.421 0 0 0 280.713 12.013 A 8.295 8.295 0 0 0 278.412 12.315 A 6.041 6.041 0 0 0 275.244 14.454 A 8.948 8.948 0 0 0 273.34 20.118 L 273.34 51.319 A 10.191 10.191 0 0 0 273.691 54.061 A 7.756 7.756 0 0 0 275.488 57.301 A 7.254 7.254 0 0 0 277.869 59.04 A 6.93 6.93 0 0 0 280.713 59.62 A 6.648 6.648 0 0 0 285.707 57.478 A 8.636 8.636 0 0 0 286.084 57.057 A 9.17 9.17 0 0 0 287.821 53.98 A 8.592 8.592 0 0 0 288.232 51.319 L 288.232 46.681 Q 288.232 46.371 288.478 46.307 A 0.576 0.576 0 0 1 288.623 46.29 L 299.951 46.29 Q 300.261 46.29 300.325 46.536 A 0.576 0.576 0 0 1 300.342 46.681 L 300.342 51.319 A 20.619 20.619 0 0 1 298.534 59.95 A 20.144 20.144 0 0 1 297.705 61.573 A 21.128 21.128 0 0 1 290.625 68.922 A 18.143 18.143 0 0 1 281.228 71.675 A 21.76 21.76 0 0 1 280.713 71.681 A 18.698 18.698 0 0 1 270.801 68.946 A 20.113 20.113 0 0 1 263.745 61.598 A 20.326 20.326 0 0 1 261.144 52.045 A 24.134 24.134 0 0 1 261.133 51.319 Z M 11.719 70.704 L 0.488 70.704 Q 0.101 70.704 0.021 70.397 A 0.719 0.719 0 0 1 0 70.216 L 0.195 1.515 Q 0.195 1.205 0.441 1.141 A 0.576 0.576 0 0 1 0.586 1.124 L 32.617 1.124 A 0.896 0.896 0 0 1 32.795 1.14 Q 33.106 1.204 33.106 1.515 L 33.106 12.794 Q 33.106 13.104 32.86 13.168 A 0.576 0.576 0 0 1 32.715 13.185 L 12.207 13.185 L 12.207 28.712 L 32.715 28.712 Q 33.106 28.712 33.106 29.2 L 33.203 40.528 Q 33.203 40.919 32.715 40.919 L 12.207 40.919 L 12.207 70.216 Q 12.207 70.603 11.9 70.683 A 0.719 0.719 0 0 1 11.719 70.704 Z M 216.26 70.216 L 228.662 1.515 Q 228.749 1.166 229.071 1.129 A 0.695 0.695 0 0 1 229.15 1.124 L 243.652 1.124 Q 243.977 1.124 244.099 1.394 A 0.709 0.709 0 0 1 244.141 1.515 L 256.055 70.216 Q 256.095 70.618 255.804 70.689 A 0.591 0.591 0 0 1 255.664 70.704 L 244.58 70.704 A 0.712 0.712 0 0 1 244.369 70.676 Q 244.08 70.586 244.043 70.216 L 242.969 62.892 L 229.346 62.892 L 228.272 70.216 Q 228.223 70.704 227.783 70.704 L 216.65 70.704 Q 216.26 70.704 216.26 70.216 Z M 191.553 70.704 L 173.633 70.704 Q 173.242 70.704 173.242 70.216 L 173.438 1.515 Q 173.438 1.205 173.684 1.141 A 0.576 0.576 0 0 1 173.828 1.124 L 193.066 1.124 Q 198.682 1.124 203.272 3.859 A 20.019 20.019 0 0 1 210.352 11.11 A 19.359 19.359 0 0 1 212.94 20.9 Q 212.94 25.196 210.986 28.907 Q 209.033 32.618 206.348 34.913 Q 209.229 37.794 210.84 41.603 A 20.343 20.343 0 0 1 212.451 49.611 Q 212.451 55.421 209.668 60.206 Q 206.836 64.991 202.1 67.848 A 20.027 20.027 0 0 1 191.553 70.704 Z M 144.482 70.607 L 126.563 70.704 Q 126.175 70.704 126.095 70.397 A 0.719 0.719 0 0 1 126.074 70.216 L 126.27 1.515 Q 126.27 1.205 126.516 1.141 A 0.576 0.576 0 0 1 126.66 1.124 L 145.361 1.027 Q 149.773 0.91 153.51 2.573 A 17.909 17.909 0 0 1 155.42 3.566 Q 159.961 6.251 162.671 10.817 A 19.386 19.386 0 0 1 165.381 20.9 L 165.381 49.611 A 20.599 20.599 0 0 1 162.598 60.157 A 21.535 21.535 0 0 1 155.078 67.701 A 20.546 20.546 0 0 1 145.94 70.54 A 24.675 24.675 0 0 1 144.482 70.607 Z M 145.361 12.989 L 138.379 13.087 L 138.281 58.4 L 144.482 58.4 A 8.752 8.752 0 0 0 148.191 57.626 A 8.588 8.588 0 0 0 150.732 55.812 A 8.539 8.539 0 0 0 153.271 49.639 A 10.252 10.252 0 0 0 153.272 49.611 L 153.272 20.802 Q 153.272 17.628 150.928 15.26 A 7.732 7.732 0 0 0 148.474 13.554 Q 147.146 12.986 145.615 12.986 A 8.382 8.382 0 0 0 145.361 12.989 Z M 236.279 20.411 L 235.84 24.122 L 231.348 52.198 L 240.967 52.198 L 236.865 24.122 L 236.279 20.411 Z M 191.553 40.821 L 185.449 40.821 L 185.352 58.497 L 191.553 58.497 A 8.36 8.36 0 0 0 197.632 55.983 A 10.471 10.471 0 0 0 197.754 55.861 A 8.895 8.895 0 0 0 199.881 52.485 A 8.846 8.846 0 0 0 200.342 49.611 A 8.446 8.446 0 0 0 197.834 43.49 A 10.413 10.413 0 0 0 197.754 43.409 Q 195.166 40.821 191.553 40.821 Z M 193.066 12.989 L 185.449 12.989 L 185.449 28.712 L 193.066 28.712 A 7.901 7.901 0 0 0 195.836 28.244 A 6.944 6.944 0 0 0 198.682 26.246 A 9.298 9.298 0 0 0 200.141 24.03 A 7.408 7.408 0 0 0 200.83 20.9 A 7.71 7.71 0 0 0 198.535 15.358 A 7.836 7.836 0 0 0 196.021 13.581 A 7.353 7.353 0 0 0 193.066 12.989 Z M 366.162 70.704 L 354.834 70.704 Q 354.524 70.704 354.46 70.458 A 0.576 0.576 0 0 1 354.443 70.314 L 354.443 58.986 Q 354.443 58.676 354.689 58.612 A 0.576 0.576 0 0 1 354.834 58.595 L 366.162 58.595 Q 366.472 58.595 366.536 58.841 A 0.576 0.576 0 0 1 366.553 58.986 L 366.553 70.314 Q 366.553 70.624 366.307 70.688 A 0.576 0.576 0 0 1 366.162 70.704 Z" vector-effect="non-scaling-stroke"/></g></svg>