<svg width="301.613" height="71.681" viewBox="0 0 301.613 71.681" xmlns="http://www.w3.org/2000/svg"><g id="svgGroup" stroke-linecap="round" fill-rule="evenodd" font-size="9pt" stroke="#000" stroke-width="0.25mm" fill="#000" style="stroke:#000;stroke-width:0.25mm;fill:#000"><path d="M 0.001 51.612 L 0.001 19.923 A 19.044 19.044 0 0 1 2.687 9.962 Q 5.323 5.421 9.767 2.711 Q 14.21 0.001 19.484 0.001 A 19.841 19.841 0 0 1 26.413 1.191 A 18.473 18.473 0 0 1 29.444 2.637 A 20.013 20.013 0 0 1 36.5 9.815 A 19.428 19.428 0 0 1 39.081 18.708 A 23.383 23.383 0 0 1 39.112 19.923 L 39.112 24.512 Q 39.112 24.903 38.624 24.903 L 27.394 24.903 Q 27.084 24.903 27.02 24.657 A 0.576 0.576 0 0 1 27.003 24.512 L 27.003 20.704 A 11.082 11.082 0 0 0 26.628 17.75 A 8.517 8.517 0 0 0 24.855 14.405 A 7.211 7.211 0 0 0 22.521 12.577 A 6.915 6.915 0 0 0 19.484 11.915 A 6.551 6.551 0 0 0 15.226 13.49 A 9.201 9.201 0 0 0 14.357 14.307 Q 12.111 16.7 12.111 19.923 L 12.111 51.612 Q 12.111 54.883 14.308 57.252 Q 16.505 59.62 19.484 59.62 A 7.331 7.331 0 0 0 22.563 58.984 A 7.176 7.176 0 0 0 24.855 57.3 A 7.998 7.998 0 0 0 26.998 51.926 A 10.341 10.341 0 0 0 27.003 51.612 L 27.003 46.68 L 20.021 46.68 A 0.856 0.856 0 0 1 19.815 46.658 Q 19.484 46.575 19.484 46.192 L 19.484 35.01 A 0.633 0.633 0 0 1 19.513 34.809 Q 19.607 34.527 20.006 34.522 A 1.155 1.155 0 0 1 20.021 34.522 L 38.722 34.522 Q 39.112 34.522 39.112 35.01 L 39.112 51.612 A 20.586 20.586 0 0 1 37.922 58.673 A 19.106 19.106 0 0 1 36.476 61.768 A 20.628 20.628 0 0 1 29.396 68.995 A 18.431 18.431 0 0 1 20.339 71.664 A 22.15 22.15 0 0 1 19.484 71.68 A 18.758 18.758 0 0 1 12.539 70.411 A 17.735 17.735 0 0 1 9.718 68.995 Q 5.323 66.309 2.662 61.768 Q 0.001 57.227 0.001 51.612 Z M 200.929 70.704 L 168.605 70.704 Q 168.214 70.704 168.214 70.215 L 168.312 1.514 Q 168.312 1.204 168.558 1.14 A 0.576 0.576 0 0 1 168.702 1.124 L 200.831 1.124 Q 201.222 1.124 201.222 1.612 L 201.222 12.794 Q 201.222 13.104 200.976 13.168 A 0.576 0.576 0 0 1 200.831 13.184 L 180.323 13.184 L 180.323 28.809 L 200.831 28.809 Q 201.141 28.809 201.205 29.055 A 0.576 0.576 0 0 1 201.222 29.2 L 201.319 40.528 Q 201.319 40.838 201.074 40.902 A 0.576 0.576 0 0 1 200.929 40.919 L 180.323 40.919 L 180.323 58.399 L 200.929 58.399 Q 201.319 58.399 201.319 58.887 L 201.319 70.313 Q 201.319 70.623 201.074 70.687 A 0.576 0.576 0 0 1 200.929 70.704 Z M 221.925 70.704 L 210.597 70.704 Q 210.206 70.704 210.206 70.215 L 210.402 1.514 Q 210.402 1.204 210.647 1.14 A 0.576 0.576 0 0 1 210.792 1.124 L 231.007 1.124 A 19.484 19.484 0 0 1 240.968 3.76 Q 245.509 6.397 248.219 10.84 A 18.656 18.656 0 0 1 250.901 19.771 A 22.562 22.562 0 0 1 250.929 20.899 A 20.643 20.643 0 0 1 250.583 24.751 A 16.725 16.725 0 0 1 249.806 27.54 A 25.962 25.962 0 0 1 248.753 29.968 Q 248.121 31.235 247.401 32.276 A 15.615 15.615 0 0 1 247.194 32.569 A 25.514 25.514 0 0 1 246.289 33.746 Q 245.323 34.925 244.484 35.596 A 20.383 20.383 0 0 1 249.903 49.708 L 250.001 70.215 Q 250.001 70.603 249.694 70.683 A 0.719 0.719 0 0 1 249.513 70.704 L 238.185 70.704 A 0.765 0.765 0 0 1 238.043 70.692 Q 237.808 70.648 237.795 70.437 A 0.411 0.411 0 0 1 237.794 70.411 L 237.794 49.708 A 8.706 8.706 0 0 0 235.255 43.458 A 8.31 8.31 0 0 0 229.236 40.824 A 10.294 10.294 0 0 0 229.005 40.821 L 222.413 40.821 L 222.316 70.215 A 0.896 0.896 0 0 1 222.299 70.394 Q 222.236 70.704 221.925 70.704 Z M 279.249 70.704 L 267.775 70.704 A 0.425 0.425 0 0 1 267.631 70.682 Q 267.433 70.611 267.433 70.313 L 267.53 41.895 L 254.152 1.514 A 0.735 0.735 0 0 1 254.139 1.453 Q 254.086 1.124 254.444 1.124 L 265.577 1.124 Q 266.066 1.124 266.163 1.514 L 273.536 28.419 L 281.056 1.514 Q 281.143 1.165 281.464 1.128 A 0.695 0.695 0 0 1 281.544 1.124 L 292.775 1.124 A 0.567 0.567 0 0 1 292.893 1.135 Q 293.149 1.19 293.068 1.514 L 279.542 41.505 L 279.64 70.313 Q 279.64 70.623 279.394 70.687 A 0.576 0.576 0 0 1 279.249 70.704 Z M 42.775 70.215 L 55.177 1.514 Q 55.264 1.165 55.586 1.128 A 0.695 0.695 0 0 1 55.665 1.124 L 70.167 1.124 Q 70.492 1.124 70.614 1.394 A 0.709 0.709 0 0 1 70.655 1.514 L 82.569 70.215 Q 82.61 70.617 82.319 70.689 A 0.591 0.591 0 0 1 82.179 70.704 L 71.095 70.704 A 0.712 0.712 0 0 1 70.884 70.675 Q 70.595 70.586 70.558 70.215 L 69.484 62.891 L 55.861 62.891 L 54.786 70.215 Q 54.737 70.704 54.298 70.704 L 43.165 70.704 Q 42.775 70.704 42.775 70.215 Z M 121.534 70.704 L 89.21 70.704 Q 88.819 70.704 88.819 70.215 L 88.917 1.612 Q 88.917 1.225 89.225 1.145 A 0.719 0.719 0 0 1 89.405 1.124 L 100.538 1.124 Q 100.926 1.124 101.006 1.431 A 0.719 0.719 0 0 1 101.027 1.612 L 100.929 58.399 L 121.534 58.399 Q 121.922 58.399 122.002 58.707 A 0.719 0.719 0 0 1 122.023 58.887 L 122.023 70.215 Q 122.023 70.603 121.715 70.683 A 0.719 0.719 0 0 1 121.534 70.704 Z M 161.232 70.704 L 128.907 70.704 Q 128.517 70.704 128.517 70.215 L 128.614 1.612 Q 128.614 1.225 128.922 1.145 A 0.719 0.719 0 0 1 129.103 1.124 L 140.236 1.124 Q 140.623 1.124 140.703 1.431 A 0.719 0.719 0 0 1 140.724 1.612 L 140.626 58.399 L 161.232 58.399 Q 161.619 58.399 161.699 58.707 A 0.719 0.719 0 0 1 161.72 58.887 L 161.72 70.215 Q 161.72 70.603 161.412 70.683 A 0.719 0.719 0 0 1 161.232 70.704 Z M 62.794 20.411 L 62.355 24.122 L 57.862 52.198 L 67.482 52.198 L 63.38 24.122 L 62.794 20.411 Z M 231.007 13.087 L 222.413 13.087 L 222.413 28.809 L 231.007 28.809 Q 234.083 28.809 236.5 26.514 A 7.427 7.427 0 0 0 238.914 21.131 A 8.978 8.978 0 0 0 238.917 20.899 Q 238.917 17.725 236.573 15.406 Q 234.23 13.087 231.007 13.087 Z M 301.222 70.704 L 289.894 70.704 Q 289.584 70.704 289.52 70.458 A 0.576 0.576 0 0 1 289.503 70.313 L 289.503 58.985 Q 289.503 58.675 289.749 58.611 A 0.576 0.576 0 0 1 289.894 58.594 L 301.222 58.594 Q 301.532 58.594 301.596 58.84 A 0.576 0.576 0 0 1 301.612 58.985 L 301.612 70.313 Q 301.612 70.623 301.367 70.687 A 0.576 0.576 0 0 1 301.222 70.704 Z" vector-effect="non-scaling-stroke"/></g></svg>