<svg width="313.282" height="71.682" viewBox="0 0 313.282 71.682" xmlns="http://www.w3.org/2000/svg"><g id="svgGroup" stroke-linecap="round" fill-rule="evenodd" font-size="9pt" stroke="#000" stroke-width="0.25mm" fill="#000" style="stroke:#000;stroke-width:0.25mm;fill:#000"><path d="M 0.001 51.612 L 0.001 19.923 A 19.044 19.044 0 0 1 2.687 9.962 Q 5.323 5.421 9.767 2.711 Q 14.21 0.001 19.484 0.001 A 19.841 19.841 0 0 1 26.413 1.191 A 18.473 18.473 0 0 1 29.444 2.637 A 20.013 20.013 0 0 1 36.5 9.815 A 19.428 19.428 0 0 1 39.081 18.708 A 23.383 23.383 0 0 1 39.112 19.923 L 39.112 24.512 Q 39.112 24.903 38.624 24.903 L 27.394 24.903 Q 27.084 24.903 27.02 24.657 A 0.576 0.576 0 0 1 27.003 24.512 L 27.003 20.704 A 11.082 11.082 0 0 0 26.628 17.75 A 8.517 8.517 0 0 0 24.855 14.405 A 7.211 7.211 0 0 0 22.521 12.577 A 6.915 6.915 0 0 0 19.484 11.915 A 6.551 6.551 0 0 0 15.226 13.49 A 9.201 9.201 0 0 0 14.357 14.307 Q 12.111 16.7 12.111 19.923 L 12.111 51.612 Q 12.111 54.883 14.308 57.252 Q 16.505 59.62 19.484 59.62 A 7.331 7.331 0 0 0 22.563 58.984 A 7.176 7.176 0 0 0 24.855 57.3 A 7.998 7.998 0 0 0 26.998 51.926 A 10.341 10.341 0 0 0 27.003 51.612 L 27.003 46.68 L 20.021 46.68 A 0.856 0.856 0 0 1 19.815 46.658 Q 19.484 46.575 19.484 46.192 L 19.484 35.01 A 0.633 0.633 0 0 1 19.513 34.809 Q 19.607 34.527 20.006 34.522 A 1.155 1.155 0 0 1 20.021 34.522 L 38.722 34.522 Q 39.112 34.522 39.112 35.01 L 39.112 51.612 A 20.586 20.586 0 0 1 37.922 58.673 A 19.106 19.106 0 0 1 36.476 61.768 A 20.628 20.628 0 0 1 29.396 68.995 A 18.431 18.431 0 0 1 20.339 71.664 A 22.15 22.15 0 0 1 19.484 71.68 A 18.758 18.758 0 0 1 12.539 70.411 A 17.735 17.735 0 0 1 9.718 68.995 Q 5.323 66.309 2.662 61.768 Q 0.001 57.227 0.001 51.612 Z M 125.929 51.612 L 125.929 47.022 A 0.856 0.856 0 0 1 125.951 46.816 Q 126.034 46.485 126.417 46.485 L 137.648 46.485 Q 137.981 46.485 138.03 46.876 A 1.181 1.181 0 0 1 138.038 47.022 L 138.038 51.612 Q 138.038 54.883 140.236 57.252 A 7.554 7.554 0 0 0 142.483 58.949 A 6.861 6.861 0 0 0 145.509 59.62 Q 148.634 59.62 150.831 57.203 A 8.061 8.061 0 0 0 153.028 51.612 A 5.685 5.685 0 0 0 151.688 47.995 Q 150.98 47.109 149.898 46.295 A 15.743 15.743 0 0 0 148.243 45.215 A 34.823 34.823 0 0 0 147.824 44.958 Q 147.151 44.55 146.217 44.019 A 130.077 130.077 0 0 0 145.218 43.457 Q 144.331 42.963 143.263 42.383 A 278.799 278.799 0 0 1 139.943 40.552 A 387.613 387.613 0 0 0 137.197 39.028 A 349.903 349.903 0 0 0 136.818 38.819 A 24.012 24.012 0 0 1 132.067 35.203 A 19.389 19.389 0 0 1 128.688 30.738 Q 126.027 25.88 126.027 19.825 A 19.447 19.447 0 0 1 127.431 12.397 A 18.545 18.545 0 0 1 128.761 9.766 A 20.61 20.61 0 0 1 135.914 2.711 A 18.521 18.521 0 0 1 145.509 0.098 A 18.784 18.784 0 0 1 155.275 2.735 A 20.546 20.546 0 0 1 162.379 9.864 A 18.861 18.861 0 0 1 165.03 19.139 A 22.475 22.475 0 0 1 165.04 19.825 L 165.04 28.028 Q 165.04 28.338 164.794 28.402 A 0.576 0.576 0 0 1 164.65 28.419 L 153.419 28.419 Q 153.109 28.419 153.045 28.173 A 0.576 0.576 0 0 1 153.028 28.028 L 152.931 19.825 A 9.162 9.162 0 0 0 152.568 17.186 A 7.206 7.206 0 0 0 150.734 14.112 A 7.435 7.435 0 0 0 148.082 12.366 A 7.259 7.259 0 0 0 145.509 11.915 A 6.928 6.928 0 0 0 140.443 14.044 A 8.981 8.981 0 0 0 140.236 14.258 Q 138.038 16.602 138.038 19.825 Q 138.038 22.85 139.228 24.957 A 7.792 7.792 0 0 0 139.43 25.294 Q 140.821 27.491 144.532 29.493 A 11.345 11.345 0 0 1 144.715 29.587 Q 145.189 29.835 146.339 30.469 A 1668.577 1668.577 0 0 0 147.834 31.293 A 2254.984 2254.984 0 0 0 149.488 32.203 Q 151.222 33.155 152.638 33.912 Q 153.851 34.56 154.24 34.76 A 10.183 10.183 0 0 0 154.347 34.815 A 26.356 26.356 0 0 1 159.053 38.131 A 21.481 21.481 0 0 1 162.233 41.651 A 15.267 15.267 0 0 1 164.825 47.934 A 20.756 20.756 0 0 1 165.138 51.612 A 21.21 21.21 0 0 1 164.159 58.139 A 18.946 18.946 0 0 1 162.501 61.866 Q 159.816 66.407 155.372 69.044 A 18.964 18.964 0 0 1 145.509 71.68 Q 140.187 71.68 135.694 68.946 A 20.63 20.63 0 0 1 128.59 61.646 Q 125.929 57.081 125.929 51.612 Z M 169.484 51.612 L 169.484 47.022 A 0.856 0.856 0 0 1 169.506 46.816 Q 169.588 46.485 169.972 46.485 L 181.202 46.485 Q 181.536 46.485 181.585 46.876 A 1.181 1.181 0 0 1 181.593 47.022 L 181.593 51.612 Q 181.593 54.883 183.79 57.252 A 7.554 7.554 0 0 0 186.038 58.949 A 6.861 6.861 0 0 0 189.064 59.62 Q 192.189 59.62 194.386 57.203 A 8.061 8.061 0 0 0 196.583 51.612 A 5.685 5.685 0 0 0 195.243 47.995 Q 194.535 47.109 193.453 46.295 A 15.743 15.743 0 0 0 191.798 45.215 A 34.823 34.823 0 0 0 191.378 44.958 Q 190.705 44.55 189.772 44.019 A 130.077 130.077 0 0 0 188.773 43.457 Q 187.886 42.963 186.818 42.383 A 278.799 278.799 0 0 1 183.497 40.552 A 387.613 387.613 0 0 0 180.752 39.028 A 349.903 349.903 0 0 0 180.372 38.819 A 24.012 24.012 0 0 1 175.621 35.203 A 19.389 19.389 0 0 1 172.242 30.738 Q 169.581 25.88 169.581 19.825 A 19.447 19.447 0 0 1 170.986 12.397 A 18.545 18.545 0 0 1 172.316 9.766 A 20.61 20.61 0 0 1 179.469 2.711 A 18.521 18.521 0 0 1 189.064 0.098 A 18.784 18.784 0 0 1 198.829 2.735 A 20.546 20.546 0 0 1 205.934 9.864 A 18.861 18.861 0 0 1 208.584 19.139 A 22.475 22.475 0 0 1 208.595 19.825 L 208.595 28.028 Q 208.595 28.338 208.349 28.402 A 0.576 0.576 0 0 1 208.204 28.419 L 196.974 28.419 Q 196.664 28.419 196.6 28.173 A 0.576 0.576 0 0 1 196.583 28.028 L 196.486 19.825 A 9.162 9.162 0 0 0 196.123 17.186 A 7.206 7.206 0 0 0 194.288 14.112 A 7.435 7.435 0 0 0 191.637 12.366 A 7.259 7.259 0 0 0 189.064 11.915 A 6.928 6.928 0 0 0 183.998 14.044 A 8.981 8.981 0 0 0 183.79 14.258 Q 181.593 16.602 181.593 19.825 Q 181.593 22.85 182.783 24.957 A 7.792 7.792 0 0 0 182.985 25.294 Q 184.376 27.491 188.087 29.493 A 11.345 11.345 0 0 1 188.27 29.587 Q 188.743 29.835 189.894 30.469 A 1668.577 1668.577 0 0 0 191.389 31.293 A 2254.984 2254.984 0 0 0 193.043 32.203 Q 194.777 33.155 196.193 33.912 Q 197.405 34.56 197.794 34.76 A 10.183 10.183 0 0 0 197.902 34.815 A 26.356 26.356 0 0 1 202.608 38.131 A 21.481 21.481 0 0 1 205.787 41.651 A 15.267 15.267 0 0 1 208.38 47.934 A 20.756 20.756 0 0 1 208.693 51.612 A 21.21 21.21 0 0 1 207.713 58.139 A 18.946 18.946 0 0 1 206.056 61.866 Q 203.37 66.407 198.927 69.044 A 18.964 18.964 0 0 1 189.064 71.68 Q 183.741 71.68 179.249 68.946 A 20.63 20.63 0 0 1 172.145 61.646 Q 169.484 57.081 169.484 51.612 Z M 255.03 51.612 L 255.03 47.022 A 0.856 0.856 0 0 1 255.053 46.816 Q 255.135 46.485 255.519 46.485 L 266.749 46.485 Q 267.083 46.485 267.131 46.876 A 1.181 1.181 0 0 1 267.14 47.022 L 267.14 51.612 Q 267.14 54.883 269.337 57.252 A 7.554 7.554 0 0 0 271.585 58.949 A 6.861 6.861 0 0 0 274.611 59.62 Q 277.736 59.62 279.933 57.203 A 8.061 8.061 0 0 0 282.13 51.612 A 5.685 5.685 0 0 0 280.789 47.995 Q 280.082 47.109 279 46.295 A 15.743 15.743 0 0 0 277.345 45.215 A 34.823 34.823 0 0 0 276.925 44.958 Q 276.252 44.55 275.319 44.019 A 130.077 130.077 0 0 0 274.319 43.457 Q 273.433 42.963 272.364 42.383 A 278.799 278.799 0 0 1 269.044 40.552 A 387.613 387.613 0 0 0 266.299 39.028 A 349.903 349.903 0 0 0 265.919 38.819 A 24.012 24.012 0 0 1 261.168 35.203 A 19.389 19.389 0 0 1 257.789 30.738 Q 255.128 25.88 255.128 19.825 A 19.447 19.447 0 0 1 256.533 12.397 A 18.545 18.545 0 0 1 257.862 9.766 A 20.61 20.61 0 0 1 265.016 2.711 A 18.521 18.521 0 0 1 274.611 0.098 A 18.784 18.784 0 0 1 284.376 2.735 A 20.546 20.546 0 0 1 291.481 9.864 A 18.861 18.861 0 0 1 294.131 19.139 A 22.475 22.475 0 0 1 294.142 19.825 L 294.142 28.028 Q 294.142 28.338 293.896 28.402 A 0.576 0.576 0 0 1 293.751 28.419 L 282.521 28.419 Q 282.211 28.419 282.147 28.173 A 0.576 0.576 0 0 1 282.13 28.028 L 282.032 19.825 A 9.162 9.162 0 0 0 281.67 17.186 A 7.206 7.206 0 0 0 279.835 14.112 A 7.435 7.435 0 0 0 277.184 12.366 A 7.259 7.259 0 0 0 274.611 11.915 A 6.928 6.928 0 0 0 269.545 14.044 A 8.981 8.981 0 0 0 269.337 14.258 Q 267.14 16.602 267.14 19.825 Q 267.14 22.85 268.33 24.957 A 7.792 7.792 0 0 0 268.531 25.294 Q 269.923 27.491 273.634 29.493 A 11.345 11.345 0 0 1 273.816 29.587 Q 274.29 29.835 275.441 30.469 A 1668.577 1668.577 0 0 0 276.936 31.293 A 2254.984 2254.984 0 0 0 278.59 32.203 Q 280.323 33.155 281.739 33.912 Q 282.952 34.56 283.341 34.76 A 10.183 10.183 0 0 0 283.448 34.815 A 26.356 26.356 0 0 1 288.154 38.131 A 21.481 21.481 0 0 1 291.334 41.651 A 15.267 15.267 0 0 1 293.927 47.934 A 20.756 20.756 0 0 1 294.239 51.612 A 21.21 21.21 0 0 1 293.26 58.139 A 18.946 18.946 0 0 1 291.603 61.866 Q 288.917 66.407 284.474 69.044 A 18.964 18.964 0 0 1 274.611 71.68 Q 269.288 71.68 264.796 68.946 A 20.63 20.63 0 0 1 257.692 61.646 Q 255.03 57.081 255.03 51.612 Z M 248.341 70.704 L 216.017 70.704 Q 215.626 70.704 215.626 70.215 L 215.724 1.514 Q 215.724 1.204 215.97 1.14 A 0.576 0.576 0 0 1 216.114 1.124 L 248.243 1.124 Q 248.634 1.124 248.634 1.612 L 248.634 12.794 Q 248.634 13.104 248.388 13.168 A 0.576 0.576 0 0 1 248.243 13.184 L 227.736 13.184 L 227.736 28.809 L 248.243 28.809 Q 248.553 28.809 248.617 29.055 A 0.576 0.576 0 0 1 248.634 29.2 L 248.732 40.528 Q 248.732 40.838 248.486 40.902 A 0.576 0.576 0 0 1 248.341 40.919 L 227.736 40.919 L 227.736 58.399 L 248.341 58.399 Q 248.732 58.399 248.732 58.887 L 248.732 70.313 Q 248.732 70.623 248.486 70.687 A 0.576 0.576 0 0 1 248.341 70.704 Z M 82.472 70.215 L 94.874 1.514 Q 94.961 1.165 95.283 1.128 A 0.695 0.695 0 0 1 95.362 1.124 L 109.864 1.124 Q 110.189 1.124 110.311 1.394 A 0.709 0.709 0 0 1 110.353 1.514 L 122.267 70.215 Q 122.307 70.617 122.016 70.689 A 0.591 0.591 0 0 1 121.876 70.704 L 110.792 70.704 A 0.712 0.712 0 0 1 110.581 70.675 Q 110.292 70.586 110.255 70.215 L 109.181 62.891 L 95.558 62.891 L 94.484 70.215 Q 94.435 70.704 93.995 70.704 L 82.862 70.704 Q 82.472 70.704 82.472 70.215 Z M 78.859 70.704 L 46.534 70.704 Q 46.144 70.704 46.144 70.215 L 46.241 1.612 Q 46.241 1.225 46.549 1.145 A 0.719 0.719 0 0 1 46.73 1.124 L 57.862 1.124 Q 58.25 1.124 58.33 1.431 A 0.719 0.719 0 0 1 58.351 1.612 L 58.253 58.399 L 78.859 58.399 Q 79.246 58.399 79.326 58.707 A 0.719 0.719 0 0 1 79.347 58.887 L 79.347 70.215 Q 79.347 70.603 79.039 70.683 A 0.719 0.719 0 0 1 78.859 70.704 Z M 102.491 20.411 L 102.052 24.122 L 97.56 52.198 L 107.179 52.198 L 103.077 24.122 L 102.491 20.411 Z M 312.892 70.704 L 301.564 70.704 Q 301.254 70.704 301.19 70.458 A 0.576 0.576 0 0 1 301.173 70.313 L 301.173 58.985 Q 301.173 58.675 301.419 58.611 A 0.576 0.576 0 0 1 301.564 58.594 L 312.892 58.594 Q 313.202 58.594 313.266 58.84 A 0.576 0.576 0 0 1 313.282 58.985 L 313.282 70.313 Q 313.282 70.623 313.036 70.687 A 0.576 0.576 0 0 1 312.892 70.704 Z" vector-effect="non-scaling-stroke"/></g></svg>