<svg width="330.859" height="71.682" viewBox="0 0 330.859 71.682" xmlns="http://www.w3.org/2000/svg"><g id="svgGroup" stroke-linecap="round" fill-rule="evenodd" font-size="9pt" stroke="#000" stroke-width="0.25mm" fill="#000" style="stroke:#000;stroke-width:0.25mm;fill:#000"><path d="M 186.328 51.515 L 186.523 1.515 Q 186.523 1.205 186.769 1.141 A 0.576 0.576 0 0 1 186.914 1.124 L 198.145 1.124 Q 198.455 1.124 198.519 1.37 A 0.576 0.576 0 0 1 198.535 1.515 L 198.535 51.515 A 8.764 8.764 0 0 0 199.133 54.79 A 8.125 8.125 0 0 0 200.684 57.252 A 7.332 7.332 0 0 0 202.902 58.952 A 6.774 6.774 0 0 0 205.908 59.62 A 7.164 7.164 0 0 0 209.112 58.912 A 7.227 7.227 0 0 0 211.279 57.252 A 8.216 8.216 0 0 0 213.427 51.62 A 10.496 10.496 0 0 0 213.428 51.515 L 213.428 1.515 Q 213.428 1.205 213.674 1.141 A 0.576 0.576 0 0 1 213.818 1.124 L 225.049 1.124 Q 225.359 1.124 225.423 1.37 A 0.576 0.576 0 0 1 225.44 1.515 L 225.635 51.515 A 20.198 20.198 0 0 1 222.998 61.671 Q 220.313 66.261 215.869 68.971 A 18.673 18.673 0 0 1 206.273 71.678 A 22.253 22.253 0 0 1 205.908 71.681 Q 200.635 71.681 196.143 68.946 A 20.373 20.373 0 0 1 188.989 61.598 A 19.829 19.829 0 0 1 186.328 51.515 Z M 232.324 51.319 L 232.422 20.118 A 20.993 20.993 0 0 1 233.49 13.351 A 19.119 19.119 0 0 1 234.961 10.06 A 19.825 19.825 0 0 1 241.968 2.76 Q 246.436 0.001 251.904 0.001 A 19.67 19.67 0 0 1 258.008 0.923 A 17.474 17.474 0 0 1 261.816 2.687 Q 266.211 5.372 268.823 9.938 A 19.971 19.971 0 0 1 271.425 19.421 A 23.728 23.728 0 0 1 271.436 20.118 L 271.436 24.708 Q 271.436 25.018 271.19 25.082 A 0.576 0.576 0 0 1 271.045 25.099 L 259.815 25.099 Q 259.505 25.099 259.441 24.853 A 0.576 0.576 0 0 1 259.424 24.708 L 259.424 20.118 Q 259.424 16.798 257.275 14.405 A 6.885 6.885 0 0 0 252.303 12.022 A 8.421 8.421 0 0 0 251.904 12.013 A 8.295 8.295 0 0 0 249.603 12.315 A 6.041 6.041 0 0 0 246.436 14.454 A 8.948 8.948 0 0 0 244.531 20.118 L 244.531 51.319 A 10.191 10.191 0 0 0 244.882 54.061 A 7.756 7.756 0 0 0 246.68 57.301 A 7.254 7.254 0 0 0 249.06 59.04 A 6.93 6.93 0 0 0 251.904 59.62 A 6.648 6.648 0 0 0 256.898 57.478 A 8.636 8.636 0 0 0 257.275 57.057 A 9.17 9.17 0 0 0 259.013 53.98 A 8.592 8.592 0 0 0 259.424 51.319 L 259.424 46.681 Q 259.424 46.371 259.67 46.307 A 0.576 0.576 0 0 1 259.815 46.29 L 271.143 46.29 Q 271.453 46.29 271.517 46.536 A 0.576 0.576 0 0 1 271.533 46.681 L 271.533 51.319 A 20.619 20.619 0 0 1 269.725 59.95 A 20.144 20.144 0 0 1 268.897 61.573 A 21.128 21.128 0 0 1 261.816 68.922 A 18.143 18.143 0 0 1 252.419 71.675 A 21.76 21.76 0 0 1 251.904 71.681 A 18.698 18.698 0 0 1 241.992 68.946 A 20.113 20.113 0 0 1 234.937 61.598 A 20.326 20.326 0 0 1 232.335 52.045 A 24.134 24.134 0 0 1 232.324 51.319 Z M 58.203 70.704 L 46.875 70.704 Q 46.484 70.704 46.484 70.216 L 46.68 1.515 Q 46.68 1.205 46.926 1.141 A 0.576 0.576 0 0 1 47.07 1.124 L 67.285 1.124 A 19.484 19.484 0 0 1 77.246 3.761 Q 81.787 6.398 84.497 10.841 A 18.656 18.656 0 0 1 87.179 19.771 A 22.562 22.562 0 0 1 87.207 20.9 A 20.643 20.643 0 0 1 86.862 24.752 A 16.725 16.725 0 0 1 86.084 27.54 A 25.962 25.962 0 0 1 85.031 29.969 Q 84.4 31.235 83.679 32.277 A 15.615 15.615 0 0 1 83.472 32.569 A 25.514 25.514 0 0 1 82.567 33.746 Q 81.601 34.925 80.762 35.597 A 20.383 20.383 0 0 1 86.182 49.708 L 86.279 70.216 Q 86.279 70.603 85.972 70.683 A 0.719 0.719 0 0 1 85.791 70.704 L 74.463 70.704 A 0.765 0.765 0 0 1 74.322 70.692 Q 74.087 70.648 74.073 70.437 A 0.411 0.411 0 0 1 74.072 70.411 L 74.072 49.708 A 8.706 8.706 0 0 0 71.533 43.458 A 8.31 8.31 0 0 0 65.514 40.824 A 10.294 10.294 0 0 0 65.283 40.821 L 58.691 40.821 L 58.594 70.216 A 0.896 0.896 0 0 1 58.578 70.394 Q 58.514 70.704 58.203 70.704 Z M 300.098 70.704 L 288.818 70.704 A 0.564 0.564 0 0 1 288.637 70.677 Q 288.385 70.592 288.379 70.234 A 1.056 1.056 0 0 1 288.379 70.216 L 288.379 13.185 L 275.391 13.185 Q 275.003 13.185 274.923 12.877 A 0.719 0.719 0 0 1 274.902 12.696 L 275 1.515 Q 275 1.205 275.246 1.141 A 0.576 0.576 0 0 1 275.391 1.124 L 313.379 1.124 Q 313.902 1.124 313.916 1.494 A 0.546 0.546 0 0 1 313.916 1.515 L 313.916 12.696 A 0.896 0.896 0 0 1 313.9 12.875 Q 313.837 13.185 313.525 13.185 L 300.391 13.185 L 300.488 70.216 A 0.896 0.896 0 0 1 300.472 70.394 Q 300.409 70.704 300.098 70.704 Z M 11.719 70.704 L 0.488 70.704 Q 0.101 70.704 0.021 70.397 A 0.719 0.719 0 0 1 0 70.216 L 0.195 1.515 Q 0.195 1.205 0.441 1.141 A 0.576 0.576 0 0 1 0.586 1.124 L 19.824 1.124 A 24.328 24.328 0 0 1 26.049 1.878 A 17.387 17.387 0 0 1 34.351 6.715 A 18.656 18.656 0 0 1 39.007 15.531 Q 39.695 18.457 39.697 21.898 A 33.737 33.737 0 0 1 39.697 21.925 A 29.978 29.978 0 0 1 39.086 28.12 A 22.847 22.847 0 0 1 36.914 34.181 A 23.072 23.072 0 0 1 33.203 39.262 A 19.771 19.771 0 0 1 29.59 42.189 A 17.965 17.965 0 0 1 19.824 45.021 L 12.207 45.021 L 12.207 70.216 Q 12.207 70.603 11.9 70.683 A 0.719 0.719 0 0 1 11.719 70.704 Z M 158.74 70.607 L 140.82 70.704 Q 140.433 70.704 140.353 70.397 A 0.719 0.719 0 0 1 140.332 70.216 L 140.527 1.515 Q 140.527 1.205 140.773 1.141 A 0.576 0.576 0 0 1 140.918 1.124 L 159.619 1.027 Q 164.031 0.91 167.768 2.573 A 17.909 17.909 0 0 1 169.678 3.566 Q 174.219 6.251 176.929 10.817 A 19.386 19.386 0 0 1 179.639 20.9 L 179.639 49.611 A 20.599 20.599 0 0 1 176.856 60.157 A 21.535 21.535 0 0 1 169.336 67.701 A 20.546 20.546 0 0 1 160.198 70.54 A 24.675 24.675 0 0 1 158.74 70.607 Z M 93.506 51.612 L 93.604 19.923 A 19.775 19.775 0 0 1 94.733 13.176 A 18.23 18.23 0 0 1 96.289 9.913 A 20.281 20.281 0 0 1 103.418 2.711 A 18.563 18.563 0 0 1 113.184 0.001 A 19.076 19.076 0 0 1 119.73 1.103 A 17.616 17.616 0 0 1 122.998 2.687 A 20.487 20.487 0 0 1 130.054 9.889 A 19.389 19.389 0 0 1 132.715 19.88 A 22.972 22.972 0 0 1 132.715 19.923 L 132.813 51.612 A 19.575 19.575 0 0 1 130.176 61.622 A 20.772 20.772 0 0 1 123.047 68.946 Q 118.604 71.681 113.184 71.681 Q 107.861 71.681 103.369 68.946 A 21.043 21.043 0 0 1 96.216 61.647 Q 93.506 57.081 93.506 51.612 Z M 159.619 12.989 L 152.637 13.087 L 152.539 58.4 L 158.74 58.4 A 8.752 8.752 0 0 0 162.449 57.626 A 8.588 8.588 0 0 0 164.99 55.812 A 8.539 8.539 0 0 0 167.529 49.639 A 10.252 10.252 0 0 0 167.529 49.611 L 167.529 20.802 Q 167.529 17.628 165.186 15.26 A 7.732 7.732 0 0 0 162.732 13.554 Q 161.404 12.986 159.873 12.986 A 8.382 8.382 0 0 0 159.619 12.989 Z M 120.703 51.612 L 120.606 19.923 A 8.685 8.685 0 0 0 120.083 16.865 A 7.803 7.803 0 0 0 118.506 14.308 A 6.853 6.853 0 0 0 113.508 12.019 A 8.818 8.818 0 0 0 113.184 12.013 A 7.096 7.096 0 0 0 108.014 14.155 A 8.881 8.881 0 0 0 107.91 14.259 Q 105.713 16.505 105.713 19.923 L 105.713 51.612 Q 105.713 54.884 107.91 57.252 A 7.554 7.554 0 0 0 110.158 58.949 A 6.861 6.861 0 0 0 113.184 59.62 A 6.75 6.75 0 0 0 117.92 57.699 A 9.303 9.303 0 0 0 118.457 57.154 A 8.885 8.885 0 0 0 120.069 54.709 A 7.699 7.699 0 0 0 120.703 51.612 Z M 19.824 12.989 L 12.207 13.087 L 12.207 32.911 L 19.824 32.911 A 6.232 6.232 0 0 0 23.998 31.3 A 9.67 9.67 0 0 0 25.342 29.86 A 10.883 10.883 0 0 0 27.268 25.719 Q 27.646 24.147 27.682 22.308 A 19.9 19.9 0 0 0 27.686 21.925 A 11.921 11.921 0 0 0 27.352 19.033 A 8.717 8.717 0 0 0 25.586 15.504 A 6.868 6.868 0 0 0 20.823 13.039 A 9.775 9.775 0 0 0 19.824 12.989 Z M 67.285 13.087 L 58.691 13.087 L 58.691 28.81 L 67.285 28.81 Q 70.361 28.81 72.778 26.515 A 7.427 7.427 0 0 0 75.192 21.132 A 8.978 8.978 0 0 0 75.195 20.9 Q 75.195 17.726 72.852 15.406 Q 70.508 13.087 67.285 13.087 Z M 330.469 70.704 L 319.141 70.704 Q 318.831 70.704 318.767 70.458 A 0.576 0.576 0 0 1 318.75 70.314 L 318.75 58.986 Q 318.75 58.676 318.996 58.612 A 0.576 0.576 0 0 1 319.141 58.595 L 330.469 58.595 Q 330.779 58.595 330.843 58.841 A 0.576 0.576 0 0 1 330.859 58.986 L 330.859 70.314 Q 330.859 70.624 330.613 70.688 A 0.576 0.576 0 0 1 330.469 70.704 Z" vector-effect="non-scaling-stroke"/></g></svg>