<svg width="299.952" height="71.682" viewBox="0 0 299.952 71.682" xmlns="http://www.w3.org/2000/svg"><g id="svgGroup" stroke-linecap="round" fill-rule="evenodd" font-size="9pt" stroke="#000" stroke-width="0.25mm" fill="#000" style="stroke:#000;stroke-width:0.25mm;fill:#000"><path d="M 0.001 51.612 L 0.001 47.023 A 0.856 0.856 0 0 1 0.023 46.817 Q 0.106 46.486 0.489 46.486 L 11.72 46.486 Q 12.053 46.486 12.102 46.877 A 1.181 1.181 0 0 1 12.11 47.023 L 12.11 51.612 Q 12.11 54.884 14.307 57.252 A 7.554 7.554 0 0 0 16.555 58.949 A 6.861 6.861 0 0 0 19.581 59.62 Q 22.706 59.62 24.903 57.203 A 8.061 8.061 0 0 0 27.1 51.612 A 5.685 5.685 0 0 0 25.76 47.996 Q 25.052 47.109 23.97 46.296 A 15.743 15.743 0 0 0 22.315 45.216 A 34.823 34.823 0 0 0 21.896 44.958 Q 21.223 44.551 20.289 44.02 A 130.077 130.077 0 0 0 19.29 43.458 Q 18.403 42.964 17.335 42.384 A 278.799 278.799 0 0 1 14.015 40.553 A 387.613 387.613 0 0 0 11.269 39.028 A 349.903 349.903 0 0 0 10.89 38.819 A 24.012 24.012 0 0 1 6.139 35.204 A 19.389 19.389 0 0 1 2.76 30.738 Q 0.098 25.88 0.098 19.825 A 19.447 19.447 0 0 1 1.503 12.397 A 18.545 18.545 0 0 1 2.833 9.767 A 20.61 20.61 0 0 1 9.986 2.711 A 18.521 18.521 0 0 1 19.581 0.099 A 18.784 18.784 0 0 1 29.347 2.736 A 20.546 20.546 0 0 1 36.451 9.864 A 18.861 18.861 0 0 1 39.102 19.14 A 22.475 22.475 0 0 1 39.112 19.825 L 39.112 28.028 Q 39.112 28.338 38.866 28.402 A 0.576 0.576 0 0 1 38.722 28.419 L 27.491 28.419 Q 27.181 28.419 27.117 28.173 A 0.576 0.576 0 0 1 27.1 28.028 L 27.003 19.825 A 9.162 9.162 0 0 0 26.64 17.186 A 7.206 7.206 0 0 0 24.806 14.112 A 7.435 7.435 0 0 0 22.154 12.366 A 7.259 7.259 0 0 0 19.581 11.915 A 6.928 6.928 0 0 0 14.515 14.044 A 8.981 8.981 0 0 0 14.307 14.259 Q 12.11 16.603 12.11 19.825 Q 12.11 22.851 13.3 24.958 A 7.792 7.792 0 0 0 13.502 25.294 Q 14.893 27.491 18.604 29.493 A 11.345 11.345 0 0 1 18.787 29.587 Q 19.26 29.835 20.411 30.47 A 1668.577 1668.577 0 0 0 21.906 31.294 A 2254.984 2254.984 0 0 0 23.56 32.203 Q 25.294 33.155 26.71 33.912 Q 27.923 34.56 28.312 34.761 A 10.183 10.183 0 0 0 28.419 34.816 A 26.356 26.356 0 0 1 33.125 38.131 A 21.481 21.481 0 0 1 36.305 41.652 A 15.267 15.267 0 0 1 38.897 47.935 A 20.756 20.756 0 0 1 39.21 51.612 A 21.21 21.21 0 0 1 38.231 58.14 A 18.946 18.946 0 0 1 36.573 61.866 Q 33.888 66.407 29.444 69.044 A 18.964 18.964 0 0 1 19.581 71.681 Q 14.259 71.681 9.766 68.946 A 20.63 20.63 0 0 1 2.662 61.647 Q 0.001 57.081 0.001 51.612 Z M 78.858 70.704 L 46.534 70.704 Q 46.143 70.704 46.143 70.216 L 46.241 1.515 Q 46.241 1.205 46.487 1.141 A 0.576 0.576 0 0 1 46.632 1.124 L 78.761 1.124 Q 79.151 1.124 79.151 1.612 L 79.151 12.794 Q 79.151 13.104 78.905 13.168 A 0.576 0.576 0 0 1 78.761 13.185 L 58.253 13.185 L 58.253 28.81 L 78.761 28.81 Q 79.071 28.81 79.135 29.056 A 0.576 0.576 0 0 1 79.151 29.2 L 79.249 40.528 Q 79.249 40.838 79.003 40.902 A 0.576 0.576 0 0 1 78.858 40.919 L 58.253 40.919 L 58.253 58.4 L 78.858 58.4 Q 79.249 58.4 79.249 58.888 L 79.249 70.314 Q 79.249 70.624 79.003 70.688 A 0.576 0.576 0 0 1 78.858 70.704 Z M 278.565 70.704 L 246.241 70.704 Q 245.85 70.704 245.85 70.216 L 245.948 1.515 Q 245.948 1.205 246.194 1.141 A 0.576 0.576 0 0 1 246.339 1.124 L 278.468 1.124 Q 278.858 1.124 278.858 1.612 L 278.858 12.794 Q 278.858 13.104 278.612 13.168 A 0.576 0.576 0 0 1 278.468 13.185 L 257.96 13.185 L 257.96 28.81 L 278.468 28.81 Q 278.778 28.81 278.842 29.056 A 0.576 0.576 0 0 1 278.858 29.2 L 278.956 40.528 Q 278.956 40.838 278.71 40.902 A 0.576 0.576 0 0 1 278.565 40.919 L 257.96 40.919 L 257.96 58.4 L 278.565 58.4 Q 278.956 58.4 278.956 58.888 L 278.956 70.314 Q 278.956 70.624 278.71 70.688 A 0.576 0.576 0 0 1 278.565 70.704 Z M 199.415 51.319 L 199.513 20.118 A 20.993 20.993 0 0 1 200.58 13.351 A 19.119 19.119 0 0 1 202.052 10.06 A 19.825 19.825 0 0 1 209.058 2.76 Q 213.526 0.001 218.995 0.001 A 19.67 19.67 0 0 1 225.099 0.923 A 17.474 17.474 0 0 1 228.907 2.687 Q 233.302 5.372 235.914 9.938 A 19.971 19.971 0 0 1 238.516 19.421 A 23.728 23.728 0 0 1 238.526 20.118 L 238.526 24.708 Q 238.526 25.018 238.28 25.082 A 0.576 0.576 0 0 1 238.136 25.099 L 226.905 25.099 Q 226.595 25.099 226.531 24.853 A 0.576 0.576 0 0 1 226.515 24.708 L 226.515 20.118 Q 226.515 16.798 224.366 14.405 A 6.885 6.885 0 0 0 219.394 12.022 A 8.421 8.421 0 0 0 218.995 12.013 A 8.295 8.295 0 0 0 216.694 12.315 A 6.041 6.041 0 0 0 213.526 14.454 A 8.948 8.948 0 0 0 211.622 20.118 L 211.622 51.319 A 10.191 10.191 0 0 0 211.973 54.061 A 7.756 7.756 0 0 0 213.77 57.301 A 7.254 7.254 0 0 0 216.151 59.04 A 6.93 6.93 0 0 0 218.995 59.62 A 6.648 6.648 0 0 0 223.989 57.478 A 8.636 8.636 0 0 0 224.366 57.057 A 9.17 9.17 0 0 0 226.103 53.98 A 8.592 8.592 0 0 0 226.515 51.319 L 226.515 46.681 Q 226.515 46.371 226.76 46.307 A 0.576 0.576 0 0 1 226.905 46.29 L 238.233 46.29 Q 238.543 46.29 238.607 46.536 A 0.576 0.576 0 0 1 238.624 46.681 L 238.624 51.319 A 20.619 20.619 0 0 1 236.816 59.95 A 20.144 20.144 0 0 1 235.987 61.573 A 21.128 21.128 0 0 1 228.907 68.922 A 18.143 18.143 0 0 1 219.51 71.675 A 21.76 21.76 0 0 1 218.995 71.681 A 18.698 18.698 0 0 1 209.083 68.946 A 20.113 20.113 0 0 1 202.027 61.598 A 20.326 20.326 0 0 1 199.426 52.045 A 24.134 24.134 0 0 1 199.415 51.319 Z M 159.669 70.704 L 147.559 70.704 A 0.574 0.574 0 0 1 147.359 70.672 Q 147.112 70.58 147.073 70.23 A 1.078 1.078 0 0 1 147.071 70.216 L 133.253 1.515 A 0.594 0.594 0 0 1 133.242 1.46 Q 133.191 1.124 133.643 1.124 L 144.972 1.124 Q 145.296 1.124 145.419 1.394 A 0.709 0.709 0 0 1 145.46 1.515 L 153.663 47.316 L 161.671 1.515 Q 161.758 1.166 162.079 1.129 A 0.695 0.695 0 0 1 162.159 1.124 L 173.341 1.124 A 1.104 1.104 0 0 1 173.484 1.133 Q 173.84 1.18 173.741 1.486 A 0.637 0.637 0 0 1 173.731 1.515 L 160.157 70.216 Q 160.108 70.704 159.669 70.704 Z M 99.854 70.704 L 88.526 70.704 Q 88.136 70.704 88.136 70.216 L 88.331 1.515 Q 88.331 1.205 88.577 1.141 A 0.576 0.576 0 0 1 88.722 1.124 L 108.936 1.124 A 19.484 19.484 0 0 1 118.897 3.761 Q 123.438 6.398 126.148 10.841 A 18.656 18.656 0 0 1 128.83 19.771 A 22.562 22.562 0 0 1 128.858 20.9 A 20.643 20.643 0 0 1 128.513 24.752 A 16.725 16.725 0 0 1 127.735 27.54 A 25.962 25.962 0 0 1 126.682 29.969 Q 126.051 31.235 125.331 32.277 A 15.615 15.615 0 0 1 125.123 32.569 A 25.514 25.514 0 0 1 124.218 33.746 Q 123.252 34.925 122.413 35.597 A 20.383 20.383 0 0 1 127.833 49.708 L 127.931 70.216 Q 127.931 70.603 127.623 70.683 A 0.719 0.719 0 0 1 127.442 70.704 L 116.114 70.704 A 0.765 0.765 0 0 1 115.973 70.692 Q 115.738 70.648 115.724 70.437 A 0.411 0.411 0 0 1 115.723 70.411 L 115.723 49.708 A 8.706 8.706 0 0 0 113.184 43.458 A 8.31 8.31 0 0 0 107.165 40.824 A 10.294 10.294 0 0 0 106.934 40.821 L 100.343 40.821 L 100.245 70.216 A 0.896 0.896 0 0 1 100.229 70.394 Q 100.166 70.704 99.854 70.704 Z M 191.407 70.704 L 180.079 70.704 Q 179.692 70.704 179.611 70.397 A 0.719 0.719 0 0 1 179.591 70.216 L 179.688 1.515 Q 179.688 1.205 179.934 1.141 A 0.576 0.576 0 0 1 180.079 1.124 L 191.309 1.124 Q 191.619 1.124 191.683 1.37 A 0.576 0.576 0 0 1 191.7 1.515 L 191.798 70.216 A 0.896 0.896 0 0 1 191.782 70.394 Q 191.718 70.704 191.407 70.704 Z M 108.936 13.087 L 100.343 13.087 L 100.343 28.81 L 108.936 28.81 Q 112.013 28.81 114.43 26.515 A 7.427 7.427 0 0 0 116.844 21.132 A 8.978 8.978 0 0 0 116.847 20.9 Q 116.847 17.726 114.503 15.406 Q 112.159 13.087 108.936 13.087 Z M 299.561 70.704 L 288.233 70.704 Q 287.923 70.704 287.859 70.458 A 0.576 0.576 0 0 1 287.843 70.314 L 287.843 58.986 Q 287.843 58.676 288.089 58.612 A 0.576 0.576 0 0 1 288.233 58.595 L 299.561 58.595 Q 299.871 58.595 299.935 58.841 A 0.576 0.576 0 0 1 299.952 58.986 L 299.952 70.314 Q 299.952 70.624 299.706 70.688 A 0.576 0.576 0 0 1 299.561 70.704 Z" vector-effect="non-scaling-stroke"/></g></svg>