<svg width="102.833" height="71.584" viewBox="0 0 102.833 71.584" xmlns="http://www.w3.org/2000/svg"><g id="svgGroup" stroke-linecap="round" fill-rule="evenodd" font-size="9pt" stroke="#000" stroke-width="0.25mm" fill="#000" style="stroke:#000;stroke-width:0.25mm;fill:#000"><path d="M 44.581 51.514 L 44.581 46.925 A 0.856 0.856 0 0 1 44.603 46.719 Q 44.686 46.387 45.069 46.387 L 56.299 46.387 Q 56.633 46.387 56.682 46.779 A 1.181 1.181 0 0 1 56.69 46.925 L 56.69 51.514 Q 56.69 54.786 58.887 57.154 A 7.554 7.554 0 0 0 61.135 58.851 A 6.861 6.861 0 0 0 64.161 59.522 Q 67.286 59.522 69.483 57.105 A 8.061 8.061 0 0 0 71.68 51.514 A 5.685 5.685 0 0 0 70.34 47.898 Q 69.632 47.011 68.55 46.198 A 15.743 15.743 0 0 0 66.895 45.118 A 34.823 34.823 0 0 0 66.476 44.86 Q 65.803 44.453 64.869 43.922 A 130.077 130.077 0 0 0 63.87 43.36 Q 62.983 42.866 61.915 42.286 A 278.799 278.799 0 0 1 58.594 40.455 A 387.613 387.613 0 0 0 55.849 38.93 A 349.903 349.903 0 0 0 55.469 38.721 A 24.012 24.012 0 0 1 50.718 35.106 A 19.389 19.389 0 0 1 47.34 30.64 Q 44.678 25.782 44.678 19.727 A 19.447 19.447 0 0 1 46.083 12.299 A 18.545 18.545 0 0 1 47.413 9.669 A 20.61 20.61 0 0 1 54.566 2.613 A 18.521 18.521 0 0 1 64.161 0.001 A 18.784 18.784 0 0 1 73.926 2.637 A 20.546 20.546 0 0 1 81.031 9.766 A 18.861 18.861 0 0 1 83.682 19.042 A 22.475 22.475 0 0 1 83.692 19.727 L 83.692 27.93 Q 83.692 28.24 83.446 28.304 A 0.576 0.576 0 0 1 83.301 28.321 L 72.071 28.321 Q 71.761 28.321 71.697 28.075 A 0.576 0.576 0 0 1 71.68 27.93 L 71.583 19.727 A 9.162 9.162 0 0 0 71.22 17.088 A 7.206 7.206 0 0 0 69.385 14.014 A 7.435 7.435 0 0 0 66.734 12.268 A 7.259 7.259 0 0 0 64.161 11.817 A 6.928 6.928 0 0 0 59.095 13.946 A 8.981 8.981 0 0 0 58.887 14.161 Q 56.69 16.505 56.69 19.727 Q 56.69 22.753 57.88 24.86 A 7.792 7.792 0 0 0 58.082 25.196 Q 59.473 27.393 63.184 29.395 A 11.345 11.345 0 0 1 63.367 29.489 Q 63.84 29.737 64.991 30.372 A 1668.577 1668.577 0 0 0 66.486 31.196 A 2254.984 2254.984 0 0 0 68.14 32.105 Q 69.874 33.057 71.29 33.814 Q 72.502 34.462 72.891 34.663 A 10.183 10.183 0 0 0 72.999 34.718 A 26.356 26.356 0 0 1 77.705 38.033 A 21.481 21.481 0 0 1 80.884 41.553 A 15.267 15.267 0 0 1 83.477 47.837 A 20.756 20.756 0 0 1 83.79 51.514 A 21.21 21.21 0 0 1 82.811 58.042 A 18.946 18.946 0 0 1 81.153 61.768 Q 78.467 66.309 74.024 68.946 A 18.964 18.964 0 0 1 64.161 71.583 Q 58.839 71.583 54.346 68.848 A 20.63 20.63 0 0 1 47.242 61.549 Q 44.581 56.983 44.581 51.514 Z M 0.001 51.417 L 0.196 1.417 Q 0.196 1.107 0.442 1.043 A 0.576 0.576 0 0 1 0.587 1.026 L 11.817 1.026 Q 12.127 1.026 12.191 1.272 A 0.576 0.576 0 0 1 12.208 1.417 L 12.208 51.417 A 8.764 8.764 0 0 0 12.805 54.692 A 8.125 8.125 0 0 0 14.356 57.154 A 7.332 7.332 0 0 0 16.574 58.854 A 6.774 6.774 0 0 0 19.581 59.522 A 7.164 7.164 0 0 0 22.784 58.814 A 7.227 7.227 0 0 0 24.952 57.154 A 8.216 8.216 0 0 0 27.1 51.522 A 10.496 10.496 0 0 0 27.1 51.417 L 27.1 1.417 Q 27.1 1.107 27.346 1.043 A 0.576 0.576 0 0 1 27.491 1.026 L 38.721 1.026 Q 39.031 1.026 39.095 1.272 A 0.576 0.576 0 0 1 39.112 1.417 L 39.307 51.417 A 20.198 20.198 0 0 1 36.671 61.573 Q 33.985 66.163 29.542 68.873 A 18.673 18.673 0 0 1 19.946 71.58 A 22.253 22.253 0 0 1 19.581 71.583 Q 14.307 71.583 9.815 68.848 A 20.373 20.373 0 0 1 2.662 61.5 A 19.829 19.829 0 0 1 0.001 51.417 Z M 102.442 70.606 L 91.114 70.606 Q 90.804 70.606 90.74 70.36 A 0.576 0.576 0 0 1 90.723 70.216 L 90.723 58.887 Q 90.723 58.577 90.969 58.513 A 0.576 0.576 0 0 1 91.114 58.497 L 102.442 58.497 Q 102.752 58.497 102.816 58.743 A 0.576 0.576 0 0 1 102.833 58.887 L 102.833 70.216 Q 102.833 70.526 102.587 70.59 A 0.576 0.576 0 0 1 102.442 70.606 Z" vector-effect="non-scaling-stroke"/></g></svg>