<svg width="300" height="300" viewBox="0 0 300 300" fill="none" xmlns="http://www.w3.org/2000/svg">
<g id="Logo 1:1">
<path id="Rectangle 1" d="M151 0H243.145V0C275.048 1.79083 300 28.1831 300 60.1363V150V300H151V0Z" fill="#9A5DE5"/>
<path id="Rectangle 2" d="M151 245.642C151 190.414 195.772 145.642 251 145.642L300 145.642V300H151V245.642Z" fill="#00BBFA"/>
<path id="Rectangle 3" d="M204 300C204 247.391 246.345 204.583 298.951 204.011L300 204V300H204V300Z" fill="#00F5D4"/>
<path id="Rectangle 4" d="M90.5041 60H151V300V300C117.125 299.287 90.0573 271.585 90.1289 237.703L90.5041 60Z" fill="#FEE43E"/>
<circle id="Ellipse 1" cx="121" cy="30" r="30" fill="#F5F5F5"/>
<path id="Rectangle 5" d="M0 0H90V157V157C40.2944 157 0 116.706 0 67V0Z" fill="#B0BEC4"/>
<path id="Rectangle 6" d="M0 151H15.5C56.6452 151 90 184.355 90 225.5V225.5C90 266.645 56.6452 300 15.5 300H0V151Z" fill="#F15BB5"/>
</g>
</svg>
